<?xml version="1.0" encoding="UTF-8" standalone="no"?> <svg width="512" height="512" viewBox="0 0 512 512" fill="none" xmlns="http://www.w3.org/2000/svg">
<path d="M85.334 314.667H53.333C41.5511 314.667 32 324.218 32 336V453.334C32 465.116 41.5511 474.667 53.333 474.667H85.334C97.1159 474.667 106.667 465.116 106.667 453.334V336C106.667 324.218 97.1159 314.667 85.334 314.667Z" fill="#00CF66"/>
<path d="M323.3 387.439C326.509 384.29 328.781 380.314 329.866 375.951V375.951C331.33 370.095 330.572 363.904 327.739 358.574C324.906 353.243 320.199 349.152 314.526 347.089L225.119 317.8C211.802 313.437 197.435 313.474 184.14 317.905L106.666 343.73V452.554L159.745 443.707C167.686 442.382 175.843 443.607 183.045 447.207L234.838 473.107C250.328 480.852 268.26 482.126 284.689 476.65L462.771 417.289C465.984 416.218 468.947 414.51 471.485 412.268C474.023 410.025 476.082 407.294 477.54 404.238C478.998 401.182 479.825 397.862 479.971 394.479C480.118 391.096 479.58 387.718 478.391 384.547C476.368 379.152 472.557 374.614 467.593 371.689C462.629 368.764 456.812 367.63 451.113 368.474L324.324 387.256L323.3 387.439Z" fill="#FFD188"/>
<path d="M266.667 277.334C325.578 277.334 373.334 229.578 373.334 170.667C373.334 111.756 325.578 64 266.667 64C207.756 64 160 111.756 160 170.667C160 229.578 207.756 277.334 266.667 277.334Z" fill="#FAC100"/>
<path d="M488.375 380.8C485.464 373.143 480.033 366.706 472.975 362.548C465.918 358.391 457.655 356.76 449.547 357.925L340.911 374.014C341.832 366.139 340.053 358.184 335.864 351.451C331.675 344.719 325.326 339.607 317.854 336.953L228.443 307.661C212.944 302.622 196.24 302.664 180.766 307.781L116.566 329.181C115.006 322.054 111.06 315.674 105.381 311.095C99.7011 306.516 92.6285 304.013 85.333 304H53.333C44.8489 304.009 36.715 307.384 30.7158 313.383C24.7167 319.382 21.3423 327.516 21.333 336V453.333C21.3423 461.817 24.7167 469.951 30.7158 475.95C36.715 481.949 44.8489 485.324 53.333 485.333H85.333C92.3224 485.31 99.1116 482.996 104.66 478.746C110.209 474.495 114.21 468.542 116.052 461.8L161.495 454.228C167.213 453.266 173.089 454.148 178.271 456.749L230.063 482.649C238.979 487.134 248.695 489.808 258.65 490.516C268.605 491.224 278.602 489.952 288.063 486.774L466.141 427.409C470.715 425.885 474.934 423.454 478.547 420.262C482.159 417.07 485.091 413.182 487.167 408.831C489.242 404.48 490.419 399.755 490.627 394.939C490.834 390.122 490.068 385.314 488.375 380.8V380.8ZM96 453.333C95.9963 456.161 94.8713 458.872 92.8716 460.872C90.872 462.871 88.1609 463.996 85.333 464H53.333C50.5051 463.996 47.794 462.871 45.7944 460.872C43.7947 458.872 42.6697 456.161 42.666 453.333V336C42.6697 333.172 43.7947 330.461 45.7944 328.461C47.794 326.462 50.5051 325.337 53.333 325.333H85.333C88.1609 325.337 90.872 326.462 92.8716 328.461C94.8713 330.461 95.9963 333.172 96 336V453.333ZM467.911 399.64C467.076 401.407 465.89 402.986 464.425 404.28C462.96 405.573 461.247 406.556 459.39 407.166L281.318 466.531C274.514 468.82 267.324 469.736 260.164 469.226C253.003 468.717 246.015 466.791 239.604 463.562L187.812 437.662C178.601 433.033 168.153 431.464 157.989 433.183L117.333 439.957V351.413L187.515 328.02C198.64 324.335 210.652 324.304 221.796 327.931L310.885 357.113C314.124 358.289 316.803 360.638 318.391 363.696C319.979 366.753 320.361 370.296 319.461 373.622C318.561 376.948 316.444 379.814 313.531 381.653C310.617 383.492 307.119 384.169 303.729 383.551L206.521 365.88C203.748 365.399 200.897 366.033 198.59 367.645C196.282 369.256 194.705 371.715 194.202 374.484C193.699 377.253 194.311 380.109 195.905 382.429C197.498 384.749 199.944 386.345 202.709 386.87L299.909 404.542C304.806 405.437 309.838 405.272 314.667 404.059C319.495 402.846 324.007 400.613 327.9 397.509L452.67 379.027C455.955 378.548 459.306 379.205 462.166 380.891C465.027 382.576 467.226 385.187 468.399 388.293C469.092 390.119 469.407 392.066 469.323 394.017C469.239 395.968 468.759 397.882 467.911 399.641V399.64Z" fill="black"/>
<path d="M258.672 178.633C260.052 179.159 261.313 179.633 262.36 180.094C263.886 180.763 265.641 181.44 267.527 182.162C277.996 186.162 282.668 188.8 282.668 193.862C282.668 196.078 280.303 199.518 275.788 201.805C272.588 203.422 261.038 207.852 246.319 197.034C244.04 195.358 241.188 194.657 238.392 195.084C235.595 195.511 233.083 197.031 231.407 199.31C229.732 201.59 229.031 204.441 229.457 207.238C229.884 210.034 231.405 212.546 233.684 214.222C240.308 219.162 247.92 222.615 256 224.346V234.666C256.027 237.477 257.163 240.164 259.16 242.142C261.158 244.12 263.855 245.23 266.666 245.23C269.478 245.23 272.175 244.12 274.173 242.142C276.17 240.164 277.306 237.477 277.333 234.666V223.786C280.12 223.08 282.828 222.093 285.416 220.841C296.88 215.042 304 204.7 304 193.862C304 173.262 285.224 166.086 275.135 162.232C273.619 161.651 272.198 161.115 270.974 160.576C269.63 159.982 268.021 159.365 266.245 158.691C256.145 154.855 250.667 151.824 250.667 146.806C250.667 144.59 253.032 141.15 257.547 138.863C260.747 137.246 272.297 132.816 287.016 143.634C289.296 145.288 292.138 145.973 294.922 145.539C297.706 145.106 300.204 143.588 301.873 141.318C303.542 139.049 304.245 136.211 303.828 133.424C303.412 130.638 301.91 128.13 299.651 126.447C293.026 121.507 285.414 118.054 277.333 116.324V106.668C277.347 105.259 277.081 103.86 276.551 102.554C276.021 101.248 275.237 100.06 274.246 99.0586C273.254 98.0571 272.073 97.2621 270.772 96.7196C269.472 96.177 268.076 95.8977 266.666 95.8977C265.257 95.8977 263.861 96.177 262.561 96.7196C261.26 97.2621 260.079 98.0571 259.087 99.0586C258.096 100.06 257.312 101.248 256.782 102.554C256.252 103.86 255.986 105.259 256 106.668V116.827C253.211 117.551 250.503 118.557 247.917 119.827C236.453 125.627 229.334 135.965 229.334 146.806C229.333 167.492 249.146 175.018 258.672 178.633Z" fill="black"/>
<path d="M266.667 288C289.873 288 312.558 281.118 331.853 268.225C351.149 255.333 366.187 237.008 375.068 215.568C383.948 194.128 386.272 170.536 381.744 147.776C377.217 125.016 366.042 104.109 349.633 87.6997C333.223 71.2905 312.317 60.1157 289.556 55.5885C266.796 51.0612 243.204 53.3849 221.764 62.2656C200.325 71.1463 182 86.1851 169.107 105.48C156.214 124.776 149.333 147.461 149.333 170.667C149.368 201.775 161.741 231.599 183.738 253.595C205.735 275.592 235.559 287.965 266.667 288V288ZM266.667 74.667C285.654 74.667 304.215 80.2973 320.002 90.846C335.789 101.395 348.093 116.388 355.359 133.929C362.625 151.471 364.527 170.774 360.822 189.396C357.118 208.018 347.975 225.123 334.549 238.549C321.123 251.975 304.018 261.118 285.396 264.822C266.773 268.527 247.471 266.625 229.929 259.359C212.388 252.093 197.395 239.789 186.846 224.002C176.297 208.215 170.667 189.654 170.667 170.667C170.696 145.215 180.82 120.814 198.817 102.817C216.814 84.8198 241.215 74.6962 266.667 74.667V74.667Z" fill="black"/>
<path d="M429.792 327.542C430.782 328.533 431.958 329.319 433.252 329.855C434.546 330.391 435.933 330.667 437.333 330.667C438.734 330.667 440.121 330.391 441.415 329.855C442.709 329.319 443.885 328.533 444.875 327.542L476.875 295.542C478.837 293.534 479.929 290.833 479.912 288.026C479.896 285.219 478.774 282.531 476.789 280.545C474.803 278.56 472.115 277.438 469.308 277.422C466.501 277.405 463.8 278.497 461.792 280.459L448 294.25V192C448.014 190.591 447.748 189.192 447.218 187.886C446.688 186.58 445.904 185.392 444.913 184.391C443.921 183.389 442.74 182.594 441.439 182.052C440.139 181.509 438.743 181.23 437.333 181.23C435.924 181.23 434.528 181.509 433.228 182.052C431.927 182.594 430.746 183.389 429.754 184.391C428.763 185.392 427.979 186.58 427.449 187.886C426.919 189.192 426.653 190.591 426.667 192V294.25L412.875 280.458C411.889 279.449 410.712 278.645 409.413 278.094C408.114 277.543 406.719 277.255 405.308 277.247C403.897 277.239 402.498 277.511 401.193 278.047C399.888 278.583 398.702 279.373 397.705 280.371C396.707 281.368 395.917 282.554 395.381 283.859C394.845 285.164 394.573 286.563 394.581 287.974C394.589 289.385 394.877 290.78 395.428 292.079C395.979 293.378 396.783 294.555 397.792 295.541L429.792 327.542Z" fill="black"/>
<path d="M416 106.667C418.829 106.667 421.542 105.543 423.543 103.543C425.543 101.542 426.667 98.8291 426.667 96V32C426.64 29.189 425.504 26.5023 423.507 24.5241C421.509 22.546 418.812 21.4363 416 21.4363C413.189 21.4363 410.492 22.546 408.494 24.5241C406.497 26.5023 405.361 29.189 405.334 32V96C405.334 98.8289 406.458 101.542 408.458 103.542C410.458 105.543 413.171 106.667 416 106.667V106.667Z" fill="black"/>
<path d="M458.667 149.333C461.496 149.333 464.209 148.209 466.21 146.209C468.21 144.208 469.334 141.495 469.334 138.666V74.666C469.348 73.2566 469.082 71.8584 468.552 70.5523C468.022 69.2462 467.238 68.0581 466.247 67.0566C465.255 66.0552 464.074 65.2602 462.773 64.7176C461.473 64.1751 460.077 63.8958 458.667 63.8958C457.258 63.8958 455.862 64.1751 454.562 64.7176C453.261 65.2602 452.08 66.0552 451.088 67.0566C450.097 68.0581 449.313 69.2462 448.783 70.5523C448.253 71.8584 447.987 73.2566 448.001 74.666V138.666C448.001 141.495 449.125 144.208 451.125 146.208C453.125 148.209 455.838 149.333 458.667 149.333V149.333Z" fill="black"/>
<path d="M106.667 128C109.496 128 112.209 126.876 114.21 124.876C116.21 122.875 117.334 120.162 117.334 117.333V53.333C117.348 51.9236 117.082 50.5254 116.552 49.2193C116.022 47.9132 115.238 46.7251 114.247 45.7236C113.255 44.7222 112.074 43.9272 110.773 43.3846C109.473 42.8421 108.077 42.5627 106.667 42.5627C105.258 42.5627 103.862 42.8421 102.562 43.3846C101.261 43.9272 100.08 44.7222 99.0884 45.7236C98.0965 46.7251 97.313 47.9132 96.7831 49.2193C96.2532 50.5254 95.9873 51.9236 96.001 53.333V117.333C96.001 120.162 97.1247 122.875 99.1249 124.875C101.125 126.876 103.838 128 106.667 128V128Z" fill="black"/>
<path d="M64 192C66.829 192 69.5422 190.876 71.5427 188.876C73.5431 186.875 74.667 184.162 74.667 181.333V117.333C74.6398 114.522 73.504 111.835 71.5066 109.857C69.5092 107.879 66.8117 106.769 64.0005 106.769C61.1893 106.769 58.4918 107.879 56.4944 109.857C54.497 111.835 53.3612 114.522 53.334 117.333V181.333C53.334 184.162 54.4577 186.875 56.4579 188.875C58.4582 190.876 61.1711 192 64 192V192Z" fill="black"/>
</svg>
